<?xml version="1.0" standalone="no"?>
<!DOCTYPE svg PUBLIC "-//W3C//DTD SVG 20010904//EN"
 "http://www.w3.org/TR/2001/REC-SVG-20010904/DTD/svg10.dtd">
<svg version="1.0" xmlns="http://www.w3.org/2000/svg"
 width="1000.000000pt" height="1000.000000pt" viewBox="0 0 1000.000000 1000.000000"
 preserveAspectRatio="xMidYMid meet">
<metadata>
Created by potrace 1.14, written by Peter Selinger 2001-2017
</metadata>
<g transform="translate(0.000000,1000.000000) scale(0.100000,-0.100000)"
fill="#000000" stroke="none">
<path d="M3800 9650 c0 -6 -31 -10 -74 -10 -41 0 -78 -4 -81 -10 -3 -5 -28
-10 -55 -10 -26 0 -50 -4 -52 -9 -1 -6 -24 -11 -50 -12 -27 -2 -48 -6 -48 -11
0 -4 -15 -8 -33 -8 -18 0 -37 -4 -43 -10 -5 -5 -26 -10 -47 -12 -20 -1 -37 -6
-37 -10 0 -4 -15 -8 -34 -8 -19 0 -38 -4 -41 -10 -3 -5 -17 -10 -30 -10 -13 0
-27 -4 -30 -10 -3 -5 -16 -10 -29 -10 -12 0 -26 -4 -32 -10 -5 -5 -22 -11 -37
-12 -15 -1 -27 -6 -27 -10 0 -4 -9 -8 -19 -8 -11 0 -21 -4 -23 -10 -1 -5 -15
-11 -30 -12 -16 -1 -28 -6 -28 -10 0 -4 -11 -8 -24 -8 -14 0 -28 -4 -31 -10
-3 -5 -15 -10 -26 -10 -10 0 -19 -4 -19 -10 0 -5 -9 -10 -20 -10 -11 0 -20 -4
-20 -10 0 -5 -13 -10 -30 -10 -16 0 -30 -4 -30 -10 0 -5 -9 -10 -20 -10 -11 0
-20 -4 -20 -10 0 -5 -9 -10 -20 -10 -11 0 -20 -4 -20 -10 0 -5 -11 -10 -24
-10 -14 0 -28 -4 -31 -10 -3 -5 -15 -10 -26 -10 -10 0 -19 -4 -19 -10 0 -5 -9
-10 -20 -10 -11 0 -20 -4 -20 -10 0 -5 -13 -10 -30 -10 -16 0 -30 -4 -30 -10
0 -5 -9 -10 -20 -10 -11 0 -20 -4 -20 -10 0 -5 -11 -10 -24 -10 -14 0 -28 -4
-31 -10 -3 -5 -20 -10 -36 -10 -18 0 -28 -4 -24 -10 3 -6 -5 -10 -19 -10 -13
0 -26 -4 -28 -9 -1 -5 -14 -11 -28 -13 -14 -1 -27 -6 -30 -9 -3 -4 -21 -8 -40
-10 -19 -2 -37 -7 -40 -11 -3 -4 -22 -8 -43 -10 -20 -1 -37 -6 -37 -10 0 -4
-22 -8 -49 -8 -27 0 -51 -4 -53 -9 -1 -6 -24 -11 -50 -12 -27 -2 -48 -6 -48
-11 0 -4 -33 -8 -74 -8 -41 0 -78 -4 -81 -10 -4 -6 -75 -10 -181 -10 -114 0
-173 3 -169 10 4 6 -13 10 -44 10 -28 0 -51 5 -51 10 0 6 -18 10 -40 10 -22 0
-40 5 -40 10 0 6 -9 10 -20 10 -11 0 -20 5 -20 10 0 6 -9 10 -20 10 -11 0 -20
5 -20 10 0 6 -6 10 -13 10 -7 0 -23 9 -35 20 -12 11 -26 20 -32 20 -14 0 -34
21 -38 40 -2 7 -11 21 -20 29 -9 9 -18 23 -20 31 -2 8 -8 17 -13 18 -5 2 -9
13 -9 23 0 11 -4 17 -10 14 -6 -4 -10 8 -10 29 0 20 -4 36 -10 36 -5 0 -10 9
-10 21 0 11 -4 17 -10 14 -5 -3 -10 0 -10 7 0 7 -9 19 -21 26 -17 11 -20 11
-14 0 6 -10 5 -10 -5 -1 -10 9 -16 9 -26 -2 -8 -7 -14 -19 -14 -25 0 -6 -4 -8
-10 -5 -5 3 -10 -3 -10 -14 0 -12 -4 -21 -10 -21 -5 0 -10 -9 -10 -19 0 -11
-5 -23 -10 -26 -13 -8 -12 -255 1 -255 5 0 9 -18 9 -40 0 -22 5 -40 10 -40 6
0 10 -13 10 -29 0 -16 4 -31 10 -33 5 -1 11 -15 12 -30 1 -16 6 -28 10 -28 4
0 8 -6 8 -13 0 -7 9 -23 20 -35 11 -12 20 -26 20 -32 0 -6 9 -20 20 -32 11
-12 20 -28 20 -35 0 -7 -9 -13 -20 -13 -11 0 -20 5 -20 10 0 6 -9 10 -20 10
-11 0 -20 5 -20 10 0 6 -9 10 -20 10 -11 0 -20 5 -20 10 0 6 -6 10 -13 10 -7
0 -23 9 -34 20 -12 11 -27 21 -33 22 -20 5 -180 168 -180 183 0 8 -4 15 -10
15 -5 0 -10 9 -10 20 0 11 -3 20 -8 20 -4 0 -13 13 -20 29 -18 40 -72 51 -72
15 0 -9 -4 -13 -9 -10 -6 4 -9 -31 -9 -81 0 -49 4 -90 8 -93 5 -3 10 -31 11
-63 1 -31 6 -57 11 -57 4 0 8 -18 8 -41 0 -24 4 -38 10 -34 6 4 10 -12 10 -40
0 -28 4 -44 10 -40 6 4 10 -8 10 -30 0 -22 4 -34 10 -30 6 4 10 -9 10 -32 0
-28 3 -34 10 -23 7 11 10 7 10 -17 0 -18 5 -33 10 -33 6 0 10 -11 10 -24 0
-14 4 -28 10 -31 5 -3 10 -15 10 -26 0 -10 5 -19 10 -19 6 0 10 -7 10 -16 0
-8 7 -22 15 -31 8 -8 13 -19 10 -24 -4 -5 -1 -9 4 -9 6 0 11 -7 11 -16 0 -9 8
-24 18 -33 9 -9 19 -23 21 -31 3 -13 7 -33 10 -49 1 -2 7 2 14 8 10 8 14 7 14
-3 0 -14 -21 -16 -33 -3 -4 4 -18 7 -31 7 -14 0 -21 4 -18 10 4 6 -7 10 -24
10 -17 0 -31 5 -31 10 0 6 -9 10 -20 10 -11 0 -20 5 -20 10 0 6 -9 10 -20 10
-11 0 -20 5 -20 10 0 6 -9 10 -20 10 -11 0 -20 5 -20 10 0 6 -9 10 -21 10 -11
0 -17 5 -14 10 3 6 1 10 -5 10 -7 0 -25 14 -40 30 -35 37 -46 37 -76 3 -22
-26 -24 -36 -24 -151 0 -80 4 -121 10 -117 8 5 14 -38 9 -71 0 -4 4 -10 9 -13
6 -3 12 -17 13 -31 2 -14 7 -28 11 -31 5 -3 9 -17 10 -32 1 -15 6 -27 10 -27
4 0 8 -9 8 -20 0 -11 5 -20 10 -20 6 0 10 -9 10 -20 0 -11 5 -20 10 -20 6 0
10 -9 10 -20 0 -11 3 -20 8 -20 8 0 32 -49 32 -67 0 -7 4 -13 8 -13 5 0 15
-12 23 -27 8 -16 22 -35 31 -44 10 -9 18 -24 18 -33 0 -9 4 -16 8 -16 5 0 15
-11 22 -25 7 -14 15 -23 17 -21 2 2 36 -28 76 -68 52 -50 73 -79 75 -99 1 -17
-2 -26 -8 -22 -5 3 -10 -1 -10 -9 0 -9 -4 -16 -10 -16 -5 0 -10 -7 -10 -16 0
-9 -8 -24 -17 -33 -23 -21 -43 -57 -43 -76 0 -8 -5 -15 -11 -15 -5 0 -8 -4 -4
-9 3 -5 -2 -16 -10 -24 -8 -9 -15 -27 -15 -41 0 -14 -5 -28 -10 -31 -6 -3 -10
-17 -10 -30 0 -13 -4 -27 -10 -30 -5 -3 -10 -30 -10 -60 0 -30 -4 -57 -10 -60
-13 -8 -13 -315 0 -315 6 0 10 -30 10 -71 0 -44 4 -68 10 -64 6 4 10 -18 10
-59 0 -37 4 -66 10 -66 6 0 10 -18 10 -41 0 -24 4 -38 10 -34 6 4 10 -13 10
-44 0 -27 5 -53 10 -56 6 -3 10 -24 10 -46 0 -24 4 -38 10 -34 6 4 10 -12 10
-40 0 -28 4 -44 10 -40 6 4 10 -13 10 -44 0 -27 5 -53 10 -56 6 -3 10 -24 10
-46 0 -24 4 -38 10 -34 8 5 16 -47 11 -77 0 -5 4 -8 9 -8 6 0 10 -18 10 -39 0
-22 4 -41 10 -43 5 -1 10 -20 12 -40 1 -21 6 -38 10 -38 4 0 8 -20 8 -44 0
-25 5 -48 10 -51 6 -3 10 -24 10 -46 0 -24 4 -38 10 -34 6 4 10 -12 10 -39 0
-25 5 -46 10 -46 6 0 10 -23 10 -51 0 -31 4 -48 10 -44 6 4 10 -10 10 -34 0
-22 5 -43 10 -46 6 -3 10 -29 10 -56 0 -31 4 -48 10 -44 6 4 10 -15 10 -50 0
-35 4 -54 10 -50 6 4 10 -15 10 -50 0 -35 4 -54 10 -50 6 4 10 -18 10 -60 0
-42 4 -64 10 -60 6 4 10 -18 10 -60 0 -42 4 -64 10 -60 6 4 10 -22 10 -70 0
-48 4 -74 10 -70 7 4 10 -112 10 -339 0 -190 -4 -346 -9 -346 -4 0 -9 -39 -10
-87 -1 -49 -6 -92 -12 -98 -5 -5 -9 -33 -9 -61 0 -29 -4 -56 -10 -59 -5 -3
-10 -21 -10 -40 0 -19 -4 -37 -10 -40 -5 -3 -10 -24 -10 -46 0 -24 -4 -38 -10
-34 -6 4 -10 -7 -10 -24 0 -17 -4 -31 -10 -31 -5 0 -10 -9 -10 -19 0 -11 -5
-23 -10 -26 -6 -3 -10 -17 -10 -31 0 -13 -4 -24 -10 -24 -5 0 -10 -9 -10 -20
0 -11 -5 -20 -11 -20 -5 0 -7 -4 -4 -10 3 -5 1 -10 -5 -10 -6 0 -8 -4 -5 -10
3 -5 1 -10 -4 -10 -6 0 -11 -7 -11 -17 0 -9 -17 -33 -37 -53 -21 -20 -39 -43
-41 -50 -2 -8 -7 -17 -10 -20 -4 -3 -8 -11 -10 -19 -2 -8 -15 -26 -30 -40 -15
-14 -28 -32 -29 -39 -2 -6 -65 -74 -141 -151 -76 -76 -139 -146 -139 -154 0
-9 4 -14 9 -11 4 3 8 0 8 -7 0 -23 35 -38 88 -39 28 0 52 4 52 8 0 11 39 12
45 1 4 -5 3 -14 -1 -20 -4 -8 -9 -7 -15 2 -7 11 -9 10 -9 -4 0 -18 -100 -125
-122 -129 -7 -2 -25 -15 -39 -30 -15 -16 -33 -28 -41 -28 -7 0 -20 -9 -28 -20
-8 -11 -20 -20 -27 -20 -22 0 -143 -128 -143 -150 0 -12 -4 -19 -9 -16 -5 3
-9 -25 -9 -64 0 -39 4 -67 9 -64 5 3 9 -8 9 -24 0 -15 9 -38 20 -50 11 -12 20
-28 20 -37 0 -8 5 -15 10 -15 6 0 10 -8 10 -18 0 -10 9 -24 20 -32 11 -8 20
-21 20 -30 0 -9 9 -22 20 -30 11 -8 20 -21 20 -30 0 -9 9 -22 20 -30 11 -8 20
-20 20 -27 0 -7 27 -40 60 -73 33 -33 60 -65 60 -71 0 -13 246 -259 260 -259
5 0 29 -18 51 -40 23 -22 46 -40 51 -40 6 0 22 -12 37 -27 14 -16 32 -29 39
-31 7 -1 26 -16 44 -32 17 -17 36 -30 42 -30 6 0 18 -9 26 -20 8 -11 22 -20
32 -20 10 0 18 -5 18 -11 0 -5 4 -8 9 -4 5 3 16 -2 24 -10 9 -8 21 -15 27 -15
6 0 8 -4 5 -10 -4 -6 5 -10 19 -10 14 0 26 -4 26 -10 0 -5 6 -10 13 -10 7 0
19 -9 27 -20 8 -11 20 -20 26 -20 14 0 94 -38 171 -81 18 -10 40 -19 48 -19
18 0 57 -20 67 -35 4 -5 8 -6 8 -1 0 4 11 1 25 -8 13 -9 33 -16 45 -16 11 0
20 -5 20 -11 0 -5 4 -8 9 -5 4 3 17 -1 27 -9 10 -8 29 -15 41 -15 12 0 25 -4
28 -10 3 -5 17 -10 30 -10 13 0 27 -4 30 -10 3 -5 17 -10 30 -10 13 0 27 -4
30 -10 3 -5 20 -10 36 -10 18 0 28 -4 24 -10 -4 -6 -3 -10 2 -9 4 1 28 1 53 0
33 -1 41 -4 30 -11 -11 -7 -4 -10 27 -10 23 0 45 -5 48 -10 3 -6 17 -10 30
-10 13 0 27 -5 30 -10 3 -6 29 -10 56 -10 32 0 48 -4 44 -10 -4 -6 -3 -10 2
-9 30 5 83 -3 78 -11 -4 -6 -3 -10 2 -9 28 5 123 -2 119 -9 -3 -5 21 -10 52
-11 31 -1 61 -6 67 -12 5 -5 44 -9 88 -9 43 0 76 -4 73 -9 -3 -5 38 -9 92 -10
53 -1 101 -6 107 -12 13 -13 962 -12 970 1 3 6 52 10 110 10 58 0 107 4 110
10 3 6 44 10 90 10 46 0 87 4 90 10 3 5 39 10 79 10 39 0 76 4 81 9 6 6 40 11
77 12 37 1 65 6 62 11 -3 4 22 8 55 8 33 0 63 5 66 10 3 6 30 10 60 10 30 0
57 5 60 10 3 6 30 10 59 10 28 0 56 4 61 9 6 6 31 11 57 12 26 2 45 6 42 11
-3 4 17 8 45 8 27 0 53 5 56 10 3 6 25 10 49 10 23 0 46 4 52 10 5 5 26 10 46
12 20 1 34 6 32 10 -4 7 54 13 79 9 5 -1 6 3 2 9 -4 6 12 10 44 10 27 0 53 5
56 10 3 6 21 10 40 10 19 0 37 4 40 10 3 5 21 10 39 10 17 0 36 4 42 10 5 5
22 11 36 12 15 1 24 6 22 10 -4 7 54 13 79 9 5 -1 6 3 2 9 -4 6 9 10 32 10 22
0 43 4 49 10 5 5 22 11 36 12 15 1 24 6 22 10 -3 4 12 8 33 8 22 0 43 4 49 10
5 5 22 11 36 12 15 1 24 6 22 10 -4 7 54 13 79 9 5 -1 6 3 2 9 -5 9 31 16 58
11 5 -1 6 3 2 9 -4 6 9 10 34 10 22 0 43 5 46 10 3 6 21 10 40 10 19 0 37 5
40 10 3 6 21 10 39 10 17 0 36 4 42 10 5 5 22 11 36 12 15 1 24 6 22 10 -5 7
36 13 59 9 5 -1 6 3 2 9 -5 8 66 17 98 11 5 -1 6 3 2 9 -5 9 31 16 58 11 5 -1
6 3 2 9 -5 9 31 16 58 11 5 -1 6 3 2 9 -5 9 31 16 58 11 5 -1 6 3 2 9 -5 9 31
16 58 11 5 -1 6 3 2 9 -5 9 15 15 38 11 4 0 7 3 7 9 0 5 9 10 21 10 11 0 17 5
14 10 -3 6 -1 10 5 10 16 0 120 108 120 125 0 8 5 15 10 15 6 0 10 9 10 19 0
11 4 23 10 26 5 3 10 22 10 41 0 31 3 34 29 34 17 0 33 -4 36 -10 3 -5 16 -10
29 -10 12 0 27 -5 33 -11 6 -6 57 -10 129 -9 147 2 144 2 138 12 -4 7 35 13
59 9 5 -1 6 3 2 9 -5 9 31 16 58 11 5 -1 6 3 2 9 -3 5 -1 10 5 10 14 0 100 86
100 100 0 6 5 8 10 5 6 -3 10 1 10 10 0 9 9 25 20 37 13 15 20 36 20 64 0 24
5 46 10 49 6 4 10 22 8 40 -1 19 -6 31 -10 29 -4 -3 -8 17 -8 45 0 27 -4 53
-10 56 -5 3 -10 19 -10 36 l0 29 104 0 c59 0 108 4 111 10 3 6 30 10 60 10 30
0 57 5 60 10 3 6 21 10 40 10 19 0 37 5 40 10 3 6 21 10 39 10 17 0 36 4 42
10 5 5 22 11 36 12 15 1 24 6 22 10 -3 4 6 8 20 8 14 0 26 5 26 10 0 6 9 10
21 10 11 0 17 4 14 10 -3 5 3 10 15 10 12 0 42 21 69 49 27 28 51 47 55 44 3
-4 6 1 6 10 0 9 5 17 10 17 6 0 10 7 10 16 0 8 5 12 10 9 6 -4 10 -3 9 2 -4
24 2 63 9 59 5 -3 10 19 11 49 1 29 -3 56 -9 60 -5 3 -10 15 -10 26 0 10 -4
19 -10 19 -5 0 -10 11 -10 24 0 14 -4 28 -10 31 -5 3 -10 13 -10 21 0 8 -36
50 -80 94 -44 44 -80 84 -80 90 0 6 -4 9 -9 5 -6 -3 -9 4 -8 15 1 18 8 20 64
20 34 0 65 5 68 10 3 6 21 10 40 10 19 0 37 5 40 10 3 6 21 10 39 10 17 0 36
4 42 10 5 5 26 10 46 12 20 1 34 6 32 10 -3 4 11 8 31 8 20 0 47 7 60 16 14 9
25 12 25 8 0 -5 4 -3 8 3 5 7 20 14 34 15 15 1 24 6 22 10 -3 4 6 8 20 8 13 0
26 4 28 10 2 5 15 11 30 12 15 1 24 6 22 10 -3 4 7 8 23 8 22 0 25 2 13 10
-11 7 -7 10 18 10 20 0 31 4 27 10 -5 9 32 16 58 11 5 -1 6 3 2 9 -3 5 0 10 9
10 8 0 16 4 18 9 2 5 10 11 18 13 8 2 21 9 28 16 8 7 17 10 21 8 4 -3 14 4 21
15 8 10 20 19 27 19 17 0 123 106 123 123 0 7 9 19 20 27 12 9 20 26 20 45 0
23 3 27 10 15 7 -11 10 9 9 67 -1 45 -6 80 -10 77 -5 -3 -9 4 -9 16 0 27 -127
153 -178 177 -20 9 -39 20 -42 23 -3 4 -17 10 -32 13 -15 4 -34 14 -42 23 -9
8 -16 13 -16 9 0 -3 -15 2 -32 11 -59 30 -68 34 -83 34 -8 0 -15 5 -15 10 0 6
6 10 13 10 8 0 7 4 -3 10 -11 7 -7 10 20 11 19 1 39 1 43 0 5 -1 6 3 2 9 -4 6
4 10 19 10 13 0 26 4 28 10 2 5 15 11 30 12 15 1 24 6 22 10 -5 7 36 13 59 9
5 -1 6 3 2 9 -3 5 1 10 9 10 9 0 16 5 16 10 0 6 12 10 26 10 15 0 34 9 44 20
10 11 29 21 43 22 14 1 23 6 21 10 -3 4 2 8 10 8 9 0 16 5 16 10 0 6 9 10 21
10 11 0 17 5 14 10 -5 9 16 15 38 11 5 -1 6 3 2 9 -3 6 3 10 15 10 11 0 32 11
46 25 14 14 29 23 34 20 5 -3 15 3 22 15 7 11 18 20 24 20 6 0 30 18 53 40 22
22 48 40 57 40 8 0 12 5 9 10 -3 5 1 10 9 10 9 0 16 7 16 16 0 8 5 12 10 9 6
-3 10 1 10 10 0 9 26 42 58 73 60 59 62 62 62 88 0 8 5 12 10 9 6 -4 10 7 10
24 0 17 5 31 10 31 6 0 10 18 10 39 0 22 5 43 10 46 6 4 10 26 9 50 -2 24 -6
42 -11 39 -4 -3 -8 8 -8 25 0 16 -4 33 -10 36 -5 3 -10 14 -10 23 0 10 -9 24
-20 32 -11 8 -20 19 -20 25 0 15 -62 79 -80 83 -8 2 -17 7 -20 12 -10 16 -81
50 -105 50 -13 0 -27 5 -30 10 -4 7 -46 10 -106 9 -54 -1 -96 -5 -93 -10 3 -5
-26 -9 -65 -9 -38 0 -73 -4 -76 -10 -3 -5 -26 -10 -51 -10 -25 0 -43 -4 -40
-8 3 -5 -13 -9 -35 -10 -30 -2 -39 1 -39 14 0 14 28 29 45 25 3 -1 13 5 21 14
9 8 19 13 23 11 4 -3 14 4 21 15 8 10 23 19 33 19 10 0 15 5 12 10 -4 6 5 10
20 10 15 0 24 4 20 10 -3 6 -1 10 6 10 6 0 19 9 28 19 10 11 24 21 32 23 7 2
26 15 40 30 14 15 32 28 40 30 7 2 30 20 50 40 20 20 39 34 43 31 3 -4 6 -1 6
6 0 18 26 41 45 41 9 0 13 5 10 10 -3 6 -1 10 5 10 14 0 180 167 180 181 0 6
17 27 38 48 20 20 38 43 40 51 2 8 8 17 13 18 5 2 9 10 9 18 0 9 4 13 8 10 4
-2 9 7 10 22 1 15 7 29 12 30 6 2 10 10 10 18 0 9 5 12 10 9 6 -4 10 -3 9 2
-5 27 2 63 11 58 6 -4 10 -3 9 2 -5 27 2 63 11 58 6 -4 10 -3 9 2 -5 28 3 103
10 99 5 -3 9 21 9 54 0 33 -4 57 -9 54 -5 -3 -9 22 -9 55 0 33 -4 63 -10 66
-5 3 -10 16 -10 28 0 12 -11 35 -25 51 -13 16 -22 33 -19 37 3 5 0 9 -5 9 -6
0 -11 6 -11 14 0 7 -12 25 -26 40 -23 22 -36 26 -83 26 -32 0 -61 -4 -67 -10
-5 -5 -22 -11 -36 -12 -15 -1 -24 -6 -22 -10 3 -4 -6 -8 -20 -8 -13 0 -26 -4
-28 -10 -1 -5 -15 -11 -30 -12 -15 -1 -24 -6 -22 -10 3 -4 -6 -8 -20 -8 -13 0
-26 -4 -28 -10 -1 -5 -15 -11 -30 -12 -15 -1 -24 -6 -22 -10 3 -4 -4 -8 -16
-8 -12 0 -19 -4 -16 -8 3 -5 -8 -8 -23 -8 -25 0 -27 2 -18 17 6 10 15 15 19
13 4 -3 8 0 8 6 0 6 16 26 35 45 19 19 39 35 45 35 6 0 8 5 5 10 -3 6 -1 10 4
10 6 0 11 7 11 16 0 8 5 12 10 9 6 -3 10 1 10 10 0 10 12 29 28 44 15 14 28
33 30 40 2 8 12 22 23 32 10 9 19 22 19 28 0 7 5 9 12 5 6 -4 8 -3 4 4 -3 6
-1 16 6 24 7 7 14 20 16 28 2 7 12 21 23 31 10 9 19 22 19 28 0 7 4 10 8 7 4
-2 9 7 10 22 1 15 7 29 12 30 6 2 10 15 10 28 0 14 4 22 10 19 6 -3 10 3 10
14 0 12 5 21 10 21 6 0 10 9 10 20 0 11 4 20 10 20 5 0 9 3 9 8 -3 20 2 43 9
38 4 -2 9 7 10 22 1 15 7 29 12 30 6 2 10 15 10 28 0 14 4 23 8 20 4 -2 9 7
10 22 1 14 7 31 12 36 6 6 10 25 10 42 0 18 5 36 10 39 6 3 10 29 10 56 0 28
4 48 8 45 4 -2 9 12 10 32 2 20 7 41 12 46 6 6 10 36 10 69 0 32 4 56 8 53 5
-3 10 25 11 62 1 37 6 71 12 76 11 12 12 273 0 280 -4 3 -9 36 -10 72 -1 37
-5 72 -11 78 -5 7 -10 37 -11 68 -1 32 -6 55 -11 52 -7 -4 -14 72 -9 99 1 5
-3 6 -9 2 -8 -5 -17 66 -11 98 1 5 -3 6 -9 2 -6 -4 -10 5 -10 22 0 16 -4 33
-10 39 -5 5 -10 26 -12 46 -1 20 -6 34 -10 32 -4 -3 -8 1 -8 8 0 7 -12 22 -26
33 -27 20 -58 29 -48 14 3 -5 0 -9 -7 -9 -19 0 -59 -53 -59 -77 0 -13 -5 -23
-11 -23 -5 0 -8 -4 -4 -9 3 -5 0 -15 -7 -23 -7 -7 -15 -24 -16 -38 -2 -14 -8
-26 -13 -28 -5 -2 -9 -10 -9 -18 0 -9 -4 -12 -10 -9 -5 3 -10 -3 -10 -14 0
-12 -4 -21 -10 -21 -5 0 -9 -3 -9 -7 3 -21 -2 -44 -9 -39 -4 2 -9 -7 -10 -22
-1 -15 -7 -29 -12 -30 -6 -2 -8 -8 -5 -12 3 -5 -5 -19 -18 -32 -25 -25 -27
-29 -27 -54 0 -8 -4 -12 -10 -9 -5 3 -10 -1 -10 -10 0 -10 -12 -29 -27 -44
-16 -14 -29 -33 -31 -41 -2 -8 -7 -17 -10 -20 -4 -3 -8 -11 -10 -19 -2 -8 -16
-26 -32 -41 -17 -16 -30 -33 -30 -40 0 -6 -4 -8 -10 -5 -6 4 -10 -5 -10 -20 0
-15 -4 -24 -10 -20 -5 3 -10 -1 -10 -10 0 -10 -13 -30 -30 -45 -16 -15 -30
-34 -30 -41 0 -7 -3 -10 -6 -6 -8 7 -54 -38 -54 -53 0 -6 -4 -8 -10 -5 -5 3
-10 -1 -10 -10 0 -20 -44 -65 -63 -65 -8 0 -17 -7 -21 -15 -6 -17 9 -21 17 -5
3 6 4 5 3 -2 -4 -19 -36 -22 -36 -4 0 8 5 18 10 21 6 3 10 14 10 23 0 10 9 24
20 32 11 8 20 22 20 32 0 10 4 18 10 18 5 0 9 3 9 8 -4 22 2 42 11 37 6 -4 10
5 10 20 0 14 4 24 8 21 4 -2 9 7 10 22 1 14 7 29 13 33 6 3 10 9 10 13 -3 24
0 36 9 31 6 -4 10 -3 9 2 -5 26 2 63 11 58 6 -3 10 3 10 14 0 11 5 23 10 26 6
3 10 20 10 36 0 17 4 28 8 25 5 -3 9 16 11 42 1 26 6 51 12 56 5 6 9 32 9 59
0 26 4 46 8 43 4 -2 9 12 10 32 2 20 7 41 12 46 6 6 10 50 10 99 0 56 4 86 10
82 14 -9 12 8 -2 24 -10 11 -10 13 0 7 15 -9 18 319 2 329 -5 3 -10 12 -10 18
0 7 4 6 10 -3 7 -12 9 -10 7 7 0 12 -5 19 -9 17 -4 -3 -8 19 -8 48 0 30 -4 58
-9 64 -6 5 -11 39 -12 76 -1 37 -6 65 -11 62 -4 -3 -8 8 -8 25 0 16 -4 33 -10
36 -5 3 -10 17 -10 30 0 13 -4 27 -10 30 -5 3 -10 15 -10 25 0 11 -9 35 -20
55 -11 20 -20 44 -20 55 0 10 -4 22 -10 25 -5 3 -10 17 -10 30 0 13 -4 27 -10
30 -5 3 -10 14 -10 23 0 10 -9 24 -20 32 -11 8 -20 24 -20 37 0 12 -4 25 -10
28 -5 3 -10 14 -10 23 0 10 -9 24 -20 32 -11 8 -20 20 -20 28 0 7 -11 24 -25
38 -14 14 -23 30 -20 35 4 5 1 9 -4 9 -6 0 -11 7 -11 15 0 18 -64 85 -80 85
-6 0 -9 4 -6 9 12 18 -27 4 -50 -18 -22 -22 -24 -31 -24 -133 0 -60 -4 -107
-8 -104 -5 3 -9 -16 -11 -42 -1 -26 -7 -49 -12 -53 -6 -3 -10 -9 -10 -13 3
-24 0 -36 -9 -31 -6 4 -10 3 -9 -2 4 -23 -2 -64 -9 -59 -4 2 -9 -7 -10 -22 -1
-15 -7 -28 -12 -30 -6 -2 -10 -15 -10 -28 0 -15 -4 -23 -10 -19 -6 4 -10 3 -9
-2 4 -23 -2 -64 -9 -59 -4 2 -9 -7 -10 -22 -1 -14 -7 -29 -13 -33 -8 -4 -7 -8
2 -12 10 -4 10 -6 2 -6 -7 -1 -13 -8 -13 -17 0 -8 -4 -12 -10 -9 -6 4 -10 -5
-10 -20 0 -14 -4 -24 -8 -21 -4 2 -9 -7 -10 -22 -1 -14 -5 -28 -10 -31 -4 -3
-8 -13 -10 -21 -2 -8 -8 -17 -13 -18 -5 -2 -7 -8 -3 -13 3 -5 0 -9 -7 -9 -7 0
-10 -3 -6 -6 3 -3 -3 -15 -14 -27 -10 -11 -19 -29 -19 -39 0 -11 -4 -16 -10
-13 -5 3 -10 -2 -10 -12 0 -10 -9 -25 -19 -33 -11 -7 -18 -17 -15 -21 2 -4 -1
-13 -8 -21 -7 -7 -14 -20 -16 -28 -2 -7 -12 -21 -23 -31 -10 -9 -19 -22 -19
-28 0 -7 -4 -9 -10 -6 -5 3 -10 -3 -10 -14 0 -12 -4 -21 -10 -21 -5 0 -10 -7
-10 -16 0 -8 -4 -12 -10 -9 -5 3 -10 -1 -10 -10 0 -9 -45 -60 -100 -115 -55
-55 -100 -106 -100 -115 0 -8 -7 -15 -16 -15 -8 0 -42 -27 -75 -60 -32 -33
-66 -60 -75 -60 -8 0 -12 -4 -9 -10 3 -5 1 -10 -5 -10 -6 0 -22 -11 -35 -25
-14 -13 -25 -29 -25 -35 0 -6 -4 -8 -10 -5 -5 3 -10 -1 -10 -10 0 -9 -40 -56
-90 -105 -49 -49 -90 -95 -90 -101 0 -7 -3 -10 -6 -6 -7 7 -134 -119 -134
-133 0 -15 -46 -60 -54 -53 -3 4 -6 1 -6 -6 0 -7 -23 -34 -50 -61 -28 -27 -50
-54 -50 -60 0 -6 -4 -8 -10 -5 -5 3 -10 -1 -10 -10 0 -9 -27 -43 -60 -75 -33
-32 -60 -64 -60 -70 0 -6 -23 -33 -50 -60 -27 -27 -50 -54 -50 -60 0 -6 -4 -8
-10 -5 -5 3 -10 -2 -10 -12 0 -10 -9 -25 -20 -33 -11 -8 -20 -20 -20 -28 0 -7
-4 -10 -10 -7 -5 3 -10 -3 -10 -14 0 -12 -4 -21 -10 -21 -5 0 -10 -7 -10 -16
0 -8 -4 -12 -10 -9 -5 3 -10 -3 -10 -14 0 -12 -4 -21 -10 -21 -5 0 -10 -9 -10
-20 0 -11 -4 -20 -10 -20 -5 0 -10 -7 -10 -16 0 -8 -4 -12 -10 -9 -5 3 -10 -1
-10 -11 0 -9 -8 -24 -17 -33 -10 -9 -19 -23 -21 -31 -2 -8 -8 -16 -13 -18 -5
-2 -9 -12 -9 -23 0 -10 -4 -19 -10 -19 -5 0 -10 -7 -10 -16 0 -8 -4 -12 -10
-9 -5 3 -10 -3 -10 -14 0 -12 -4 -21 -10 -21 -5 0 -9 -3 -9 -7 4 -23 -2 -43
-11 -38 -5 3 -10 -3 -10 -14 0 -12 -4 -21 -10 -21 -5 0 -10 -7 -10 -16 0 -8
-5 -12 -10 -9 -6 4 -10 3 -9 -2 4 -23 -2 -64 -9 -59 -4 2 -9 -7 -10 -22 -1
-15 -7 -28 -12 -30 -6 -2 -10 -10 -10 -18 0 -9 -5 -12 -10 -9 -6 4 -10 3 -9
-2 5 -27 -2 -63 -11 -58 -6 4 -10 3 -9 -2 4 -23 -2 -64 -9 -59 -4 2 -9 -7 -10
-22 -1 -15 -7 -28 -12 -30 -6 -2 -10 -15 -10 -28 0 -15 -4 -23 -10 -19 -6 4
-10 3 -9 -2 4 -23 -2 -64 -9 -59 -4 2 -9 -12 -10 -32 -2 -20 -7 -38 -12 -40
-6 -2 -10 -15 -10 -28 0 -14 -4 -23 -8 -20 -4 2 -9 -7 -10 -22 -1 -14 -7 -31
-12 -36 -6 -6 -10 -27 -10 -49 0 -21 -4 -36 -8 -33 -4 2 -9 -7 -10 -22 -1 -15
-7 -28 -12 -30 -6 -2 -10 -12 -10 -22 0 -10 -4 -22 -10 -25 -5 -3 -10 -20 -10
-36 0 -18 -4 -28 -10 -24 -6 4 -10 3 -9 -2 4 -23 -2 -64 -9 -59 -4 2 -9 -7
-10 -22 -1 -15 -7 -28 -12 -30 -6 -2 -10 -12 -10 -23 0 -10 -4 -19 -10 -19 -5
0 -10 -12 -10 -26 0 -15 -4 -23 -10 -19 -6 4 -10 3 -9 -2 5 -26 -2 -63 -11
-58 -5 3 -10 -3 -10 -14 0 -12 -4 -21 -10 -21 -5 0 -10 -12 -10 -26 0 -15 -4
-23 -10 -19 -6 4 -10 3 -9 -2 4 -23 -2 -64 -9 -59 -4 2 -9 -7 -10 -22 -1 -15
-7 -28 -12 -30 -6 -2 -10 -15 -10 -28 0 -14 -4 -23 -8 -20 -4 2 -9 -7 -10 -22
-1 -15 -7 -28 -12 -30 -6 -2 -10 -15 -10 -28 0 -14 -4 -23 -8 -20 -4 2 -9 -7
-10 -22 -1 -14 -7 -31 -12 -36 -6 -6 -10 -20 -10 -32 0 -12 -4 -24 -10 -26 -5
-1 -11 -15 -12 -30 -1 -15 -6 -24 -10 -22 -4 3 -8 -2 -8 -10 0 -9 -4 -16 -10
-16 -5 0 -9 -3 -9 -7 3 -21 -2 -44 -9 -39 -4 2 -9 -7 -10 -22 -1 -15 -7 -28
-12 -30 -6 -2 -10 -12 -10 -23 0 -10 -4 -19 -10 -19 -5 0 -10 -12 -10 -26 0
-15 -4 -23 -10 -19 -6 4 -10 3 -9 -2 4 -23 -2 -64 -9 -59 -4 2 -9 -4 -9 -15
-2 -26 -26 -79 -35 -79 -5 0 -8 -10 -8 -22 0 -19 -2 -20 -10 -8 -8 12 -10 11
-10 -7 0 -13 -4 -23 -10 -23 -5 0 -9 -3 -9 -7 4 -23 -2 -43 -11 -38 -6 4 -10
-5 -10 -20 0 -15 -4 -24 -10 -20 -6 4 -10 -5 -10 -20 0 -14 -4 -24 -8 -21 -4
2 -9 -7 -10 -21 -1 -14 -11 -33 -22 -43 -11 -10 -20 -23 -20 -29 0 -7 -4 -10
-8 -7 -4 2 -9 -7 -10 -21 -1 -14 -10 -33 -19 -42 -10 -9 -19 -23 -21 -31 -2
-8 -8 -16 -13 -18 -5 -2 -9 -11 -9 -19 0 -9 -10 -24 -22 -34 -12 -11 -16 -19
-8 -19 8 0 4 -8 -8 -19 -12 -10 -22 -24 -22 -30 0 -7 -4 -9 -10 -6 -5 3 -10
-3 -10 -14 0 -12 -4 -21 -10 -21 -5 0 -10 -7 -10 -16 0 -8 -4 -12 -10 -9 -5 3
-10 -3 -10 -14 0 -12 -4 -21 -10 -21 -5 0 -10 -7 -10 -16 0 -8 -4 -12 -10 -9
-5 3 -10 -3 -10 -14 0 -12 -4 -21 -8 -21 -5 0 -15 -12 -23 -28 -18 -35 -35
-53 -43 -45 -3 4 -6 1 -6 -5 0 -15 -166 -182 -180 -182 -6 0 -8 -4 -5 -10 4
-6 -7 -10 -24 -10 -17 0 -31 5 -31 11 0 5 -4 7 -10 4 -5 -3 -10 -1 -10 6 0 7
-22 34 -50 60 -27 26 -50 53 -50 59 0 6 -18 29 -40 50 -22 21 -40 45 -40 52 0
7 -9 20 -20 28 -11 8 -20 19 -20 25 0 5 -14 26 -30 45 -16 19 -30 41 -30 48 0
6 -4 12 -10 12 -5 0 -10 9 -10 20 0 11 -4 20 -10 20 -5 0 -10 8 -10 18 0 10
-9 24 -20 32 -11 8 -20 22 -20 32 0 10 -4 18 -10 18 -5 0 -10 9 -10 20 0 11
-3 20 -7 20 -9 0 -33 49 -33 67 0 7 -4 13 -10 13 -5 0 -10 9 -10 20 0 11 -4
20 -10 20 -5 0 -10 9 -10 20 0 11 -3 20 -8 20 -8 0 -43 74 -48 100 -2 8 -8 16
-13 18 -6 2 -11 13 -11 23 0 11 -4 17 -10 14 -6 -4 -10 8 -10 29 0 20 -3 36
-7 36 -9 0 -33 49 -33 67 0 7 -4 13 -10 13 -5 0 -10 9 -10 20 0 11 -4 20 -10
20 -5 0 -10 9 -10 20 0 11 -4 20 -10 20 -5 0 -10 9 -10 20 0 11 -4 20 -10 20
-5 0 -10 11 -10 24 0 14 -4 28 -10 31 -5 3 -10 15 -10 26 0 10 -4 19 -10 19
-5 0 -10 9 -10 20 0 11 -4 20 -10 20 -5 0 -10 14 -10 31 0 17 -4 28 -10 24 -6
-4 -10 8 -10 29 0 20 -4 36 -10 36 -5 0 -10 14 -10 31 0 17 -4 28 -10 24 -8
-5 -15 31 -11 58 0 4 -4 7 -9 7 -6 0 -10 14 -10 30 0 17 -4 30 -10 30 -5 0
-10 18 -10 40 0 22 -4 40 -10 40 -5 0 -10 23 -10 51 0 31 -4 48 -10 44 -6 -4
-10 45 -10 139 0 139 1 146 20 146 11 0 20 -4 20 -10 0 -5 18 -10 40 -10 22 0
40 -4 40 -10 0 -5 25 -10 56 -10 34 0 53 -4 49 -10 -4 -7 61 -10 189 -10 119
0 197 4 201 10 3 6 33 10 66 10 33 0 59 4 59 10 0 6 15 10 34 10 19 0 38 5 41
10 3 6 24 10 46 10 21 0 39 5 39 10 0 6 14 10 30 10 17 0 30 5 30 10 0 6 14
10 31 10 17 0 28 4 24 10 -5 8 31 15 58 11 4 0 7 4 7 9 0 6 9 10 20 10 11 0
20 5 20 10 0 6 14 10 30 10 17 0 30 5 30 10 0 6 9 10 20 10 11 0 20 5 20 10 0
6 9 10 20 10 11 0 20 5 20 10 0 6 9 10 20 10 11 0 20 5 20 10 0 6 9 10 20 10
11 0 20 5 20 10 0 6 7 10 16 10 8 0 22 7 31 15 8 8 19 13 24 10 5 -4 9 -1 9 4
0 6 9 11 20 11 11 0 20 5 20 10 0 6 7 10 16 10 8 0 12 5 9 10 -3 6 3 10 14 10
12 0 21 5 21 10 0 6 9 10 20 10 11 0 20 5 20 10 0 6 7 10 16 10 8 0 12 5 9 10
-5 9 10 15 18 8 1 -2 14 8 28 22 17 17 26 38 28 63 1 25 -2 36 -9 32 -6 -4
-10 4 -10 19 0 14 -1 29 -1 34 -3 15 -91 92 -105 92 -8 0 -12 5 -9 10 3 6 0
10 -7 10 -8 0 -20 9 -28 20 -8 11 -23 20 -33 20 -10 0 -15 5 -12 10 3 6 2 10
-3 10 -13 0 -182 169 -182 181 0 6 -22 32 -50 60 -27 27 -50 55 -50 60 0 6 -4
7 -10 4 -5 -3 -10 1 -10 11 0 9 -13 30 -30 46 -16 15 -30 35 -30 43 0 8 -4 15
-10 15 -5 0 -10 7 -10 16 0 8 -4 13 -8 10 -5 -3 -15 7 -23 22 -8 15 -22 34
-31 43 -10 9 -18 27 -18 39 0 13 -3 21 -6 17 -8 -8 -34 18 -34 33 0 6 -9 20
-20 32 -11 12 -20 28 -20 35 0 7 -4 13 -10 13 -5 0 -10 8 -10 18 0 10 -9 24
-20 32 -11 8 -20 20 -20 26 0 19 -26 64 -33 57 -4 -3 -7 15 -7 40 0 40 3 47
20 47 11 0 20 5 20 10 0 6 9 10 20 10 11 0 20 5 20 10 0 6 14 10 30 10 17 0
30 5 30 10 0 6 11 10 24 10 14 0 28 5 31 10 3 6 24 10 46 10 21 0 39 5 39 10
0 6 27 10 61 10 37 0 58 4 54 10 -4 6 40 10 125 10 85 0 129 -4 125 -10 -4 -6
17 -10 54 -10 34 0 61 -4 61 -10 0 -5 18 -10 40 -10 22 0 40 -4 40 -10 0 -5 3
-9 8 -9 26 4 62 -3 57 -11 -4 -6 7 -10 24 -10 17 0 31 -4 31 -10 0 -5 9 -10
20 -10 11 0 20 -4 20 -10 0 -5 9 -10 20 -10 11 0 20 -4 20 -10 0 -5 9 -10 20
-10 11 0 20 -4 20 -10 0 -5 9 -10 20 -10 11 0 20 -4 20 -10 0 -5 9 -10 20 -10
11 0 20 -4 20 -10 0 -5 6 -10 13 -10 7 0 22 -8 33 -17 10 -10 31 -24 47 -32
15 -8 27 -18 27 -23 0 -4 9 -8 20 -8 11 0 20 -7 20 -16 0 -8 5 -12 10 -9 6 3
10 1 10 -4 0 -6 9 -11 21 -11 11 0 17 -4 14 -10 -3 -5 -1 -10 4 -10 6 0 23
-13 39 -29 15 -16 34 -31 42 -33 7 -2 37 -27 67 -56 29 -29 58 -50 63 -47 6 3
10 1 10 -4 0 -16 49 -13 66 3 8 8 14 21 14 30 0 8 5 18 10 21 13 8 14 532 1
537 -6 2 -11 33 -12 71 -1 37 -6 67 -11 67 -4 0 -8 23 -8 51 0 31 -4 48 -10
44 -6 -4 -10 12 -10 39 0 25 -4 46 -10 46 -5 0 -10 18 -10 41 0 24 -4 38 -10
34 -6 -4 -10 8 -10 30 0 22 -4 34 -10 30 -6 -4 -10 5 -10 19 0 14 -4 26 -10
26 -5 0 -10 14 -10 30 0 17 -4 30 -10 30 -5 0 -10 9 -10 20 0 11 -4 20 -10 20
-5 0 -10 9 -10 20 0 11 -4 20 -10 20 -5 0 -10 9 -10 20 0 11 -4 20 -10 20 -5
0 -10 8 -10 18 0 10 -9 24 -20 32 -11 8 -20 21 -20 28 0 8 -12 26 -27 41 -16
14 -29 32 -31 39 -4 20 -187 202 -203 202 -8 0 -20 9 -27 20 -7 11 -20 20 -30
20 -10 0 -24 9 -32 20 -8 11 -22 20 -32 20 -10 0 -18 5 -18 10 0 6 -8 10 -18
10 -10 0 -24 9 -32 20 -8 11 -22 20 -32 20 -10 0 -18 5 -18 10 0 6 -9 10 -20
10 -11 0 -20 5 -20 10 0 6 -9 10 -20 10 -11 0 -20 5 -20 10 0 6 -9 10 -20 10
-11 0 -20 5 -20 10 0 6 -9 10 -20 10 -11 0 -20 5 -20 10 0 6 -13 10 -30 10
-16 0 -30 5 -30 10 0 6 -12 10 -26 10 -14 0 -23 4 -19 10 4 6 -7 10 -24 10
-17 0 -31 5 -31 10 0 6 -12 10 -26 10 -14 0 -23 4 -19 10 4 6 -8 10 -30 10
-22 0 -34 4 -30 10 4 6 -10 10 -34 10 -23 0 -41 5 -41 10 0 6 -18 10 -40 10
-22 0 -40 4 -40 8 0 5 -26 10 -57 11 -32 1 -62 6 -67 12 -14 12 -296 12 -296
-1 0 -5 -18 -10 -40 -10 -34 0 -40 3 -40 21 0 11 -4 17 -10 14 -6 -4 -10 8
-10 29 0 20 -4 36 -10 36 -5 0 -10 9 -10 20 0 11 -4 20 -10 20 -5 0 -10 9 -10
20 0 11 -4 20 -10 20 -5 0 -10 9 -10 20 0 11 -4 20 -10 20 -5 0 -10 12 -10 27
0 14 -3 24 -6 20 -8 -8 -34 18 -34 33 0 6 -31 42 -68 80 -38 39 -66 72 -64 75
3 3 -1 5 -9 5 -8 0 -20 9 -27 20 -7 11 -19 20 -27 20 -8 0 -28 14 -43 30 -16
17 -37 30 -46 30 -9 0 -16 5 -16 10 0 6 -9 10 -20 10 -11 0 -20 5 -20 10 0 6
-9 10 -20 10 -11 0 -20 5 -20 10 0 6 -11 10 -25 10 -14 0 -25 5 -25 10 0 6
-11 10 -25 10 -14 0 -25 5 -25 10 0 6 -21 10 -46 10 -27 0 -43 4 -39 10 4 6
-15 10 -50 10 -35 0 -54 4 -50 10 4 7 -97 10 -294 10 -194 0 -301 -4 -301 -10z"/>
</g>
</svg>
